<?xml version="1.0" encoding="utf-8"?>
<!-- Generator: Adobe Illustrator 28.0.0, SVG Export Plug-In . SVG Version: 6.00 Build 0)  -->
<svg version="1.1" xmlns="http://www.w3.org/2000/svg" xmlns:xlink="http://www.w3.org/1999/xlink" x="0px" y="0px"
	 viewBox="0 0 542.15 361.43" style="enable-background:new 0 0 542.15 361.43;" xml:space="preserve">
<style type="text/css">
	.st0{fill:#EBB432;}
	.st1{fill:#64AA55;}
	.st2{fill:#1E1E3C;}
	.st3{fill:#1B213B;}
</style>
<g id="BACKGROUND">
</g>
<g id="OBJECTS">
	<g>
		<g>
			<path class="st0" d="M212.57,129.14l4.46,6.2c5.67,7.88,14.78,12.55,24.49,12.55h0c15.99,0,28.95,12.96,28.95,28.95v0
				c0,15.99-12.96,28.95-28.95,28.95h0c-15.99,0-28.95-12.96-28.95-28.95V129.14z"/>
			<path class="st1" d="M274.42,176.84c0,15.99,12.96,28.95,28.95,28.95h0c15.99,0,28.95-12.96,28.95-28.95v0
				c0-15.99-12.96-28.95-28.95-28.95h0c-9.71,0-18.82-4.67-24.49-12.55l-4.46-6.2V176.84z"/>
			<path class="st0" d="M255.67,85.38l6.2,4.46c7.88,5.67,12.55,14.78,12.55,24.49v0c0,15.99,12.96,28.95,28.95,28.95h0
				c15.99,0,28.95-12.96,28.95-28.95v0c0-15.99-12.96-28.95-28.95-28.95H255.67z"/>
			<path class="st0" d="M241.52,94.56c0.28,0,0.55,0.01,0.82,0.02V84.43c-0.27-0.01-0.55-0.02-0.82-0.02
				c-17.26,0-31.25,13.99-31.25,31.25h10.15C220.42,104.01,229.87,94.56,241.52,94.56z"/>
		</g>
		<g>
			<g>
				<path class="st2" d="M139.81,254.21c-1.45,0-2.72-0.88-3.16-2.19l-10.28-21.76l-0.07,23.69c0,0.12-0.1,0.21-0.21,0.21h-4.77
					c-0.16,0-0.29-0.13-0.29-0.29v-26.58c0-1.73,1.49-3.15,3.32-3.15h2.34c1.45,0,2.72,0.88,3.16,2.19l10.56,21.89v-23.79
					c0-0.17,0.14-0.3,0.3-0.3h4.19c0.17,0,0.3,0.14,0.3,0.3v26.63c0,1.73-1.49,3.15-3.32,3.15H139.81z"/>
				<path class="st2" d="M159.54,254.14c-2.98,0-5.41-2.36-5.41-5.25v-22.47c0-1.22,0.99-2.2,2.2-2.2h21.39
					c0.13,0,0.23,0.11,0.23,0.23v4.19c0,0.12-0.1,0.22-0.22,0.22h-16.67c-1.88,0-2.13,0.33-2.13,2.07v6.32h11.11
					c0.2,0,0.37,0.16,0.37,0.37v2.67c0,0.2-0.16,0.37-0.37,0.37h-11.11v6.89c0,1.08,0.9,1.95,2.02,1.95h10.42
					c1.13,0,2.04-0.89,2.04-1.98v-1.68c0-0.31,0.25-0.55,0.55-0.55h3.68c0.31,0,0.55,0.25,0.55,0.55v3.06c0,2.9-2.43,5.25-5.41,5.25
					L159.54,254.14L159.54,254.14z"/>
				<path class="st2" d="M207.88,253.59l0.02-12.37h-16.5v12.36c0,0.32-0.26,0.58-0.58,0.58h-3.64c-0.32,0-0.57-0.25-0.57-0.57
					c-0.02-4.06-0.08-21.61-0.01-28.8c0-0.37,0.3-0.66,0.66-0.66l17.86,0.02c2.28,0,7.58,0.73,7.58,7.52
					c0,0.74-0.03,18.43-0.03,21.94c0,0.32-0.26,0.57-0.58,0.57l-3.64-0.01C208.14,254.17,207.88,253.91,207.88,253.59z
					 M191.39,237.77h16.51l0.01-6.36c0-1.51-1.08-2.56-2.62-2.56c-2.29,0-10.76-0.01-13.19-0.01c-0.37,0-0.66,0.29-0.66,0.66
					L191.39,237.77z"/>
				<path class="st2" d="M241.56,253.69c-0.59-5.94-3.83-11.96-9.93-12.56l-5.2-0.01v12.52c0,0.29-0.23,0.52-0.52,0.52h-3.76
					c-0.29,0-0.52-0.23-0.52-0.52v-28.79c0-0.39,0.32-0.71,0.71-0.71l17.57,0.03c3.54,0,6.42,2.96,6.42,6.6
					c0,3.48-1.63,6.45-4.59,8.36l-2.14,1.39l1.79,1.8c3.23,3.26,4.8,7.85,5,11.31c0.02,0.3-0.23,0.54-0.53,0.54h-3.8
					C241.8,254.16,241.59,253.96,241.56,253.69z M226.43,237.44h8.23c3.1,0,5.76-1.94,6.61-4.83c0.2-0.69,0.12-1.82-0.55-2.68
					c-0.4-0.51-1.14-1.12-2.46-1.12h-11.83V237.44z"/>
				<path class="st2" d="M263.53,254.06c-0.16,0-0.29-0.13-0.29-0.28v-29.47c0-0.15,0.13-0.28,0.29-0.28l18.86,0.01
					c3.77,0,6.5,4.42,6.5,10.5c0,4.96-1.09,9.66-3.07,13.24c-2.23,4.03-5.37,6.26-8.83,6.26L263.53,254.06z M276.99,249.39
					c0.95,0,1.88-0.48,2.74-1.41c1.96-2.12,4.57-7.92,3.75-15.23c-0.26-2.3-2.28-4.03-4.69-4.03h-10.75v20.68H276.99z"/>
				<path class="st2" d="M302.5,254.14c-2.98,0-5.41-2.36-5.41-5.25v-22.47c0-1.22,0.99-2.2,2.2-2.2h21.39
					c0.13,0,0.23,0.11,0.23,0.23v4.19c0,0.12-0.1,0.22-0.22,0.22h-16.67c-1.88,0-2.13,0.33-2.13,2.07v6.32h11.11
					c0.2,0,0.37,0.16,0.37,0.37v2.67c0,0.2-0.16,0.37-0.37,0.37h-11.11v6.89c0,1.08,0.9,1.95,2.02,1.95h10.42
					c1.13,0,2.04-0.89,2.04-1.98v-1.68c0-0.31,0.25-0.55,0.55-0.55h3.68c0.31,0,0.55,0.25,0.55,0.55v3.06c0,2.9-2.43,5.25-5.41,5.25
					L302.5,254.14L302.5,254.14z"/>
				<path class="st2" d="M347.96,254.16c-0.31,0-0.56-0.23-0.59-0.54c-0.94-8.05-5.06-12.96-10.9-12.97l-2.15,0v12.9
					c0,0.33-0.27,0.6-0.6,0.6h-3.59c-0.33,0-0.6-0.27-0.6-0.6v-28.83c0-0.33,0.27-0.6,0.6-0.6h3.59c0.33,0,0.6,0.27,0.6,0.6v11.29
					l2.2-0.05c5.72-0.14,10.55-5.03,11.29-11.28c0.04-0.3,0.28-0.54,0.59-0.54l3.84-0.01c0.35,0,0.63,0.3,0.6,0.65
					c-0.25,3.45-1.82,9.67-7.15,12.39c-0.44,0.23-2.71,1.17-2.71,1.17s2.46,1.17,2.75,1.32c4.74,2.52,6.74,8.75,6.96,13.87
					c0.01,0.34-0.26,0.62-0.61,0.62L347.96,254.16z"/>
				<path class="st2" d="M382.16,253.43l0.01-12.78h-16.34v12.78c0,0.4-0.33,0.73-0.73,0.73l-3.33,0c-0.4,0-0.73-0.33-0.73-0.73
					l0-28.57c0-0.4,0.33-0.73,0.73-0.73l3.33,0c0.4,0,0.73,0.33,0.73,0.73l0,12.39h16.34v-12.4c0-0.4,0.33-0.73,0.73-0.73l3.35,0.01
					c0.4,0,0.72,0.33,0.72,0.73l-0.01,28.57c0,0.4-0.33,0.73-0.73,0.73h-3.35C382.48,254.16,382.16,253.83,382.16,253.43z"/>
				<path class="st2" d="M405.96,254.45c-5.7,0-10.33-3.9-10.33-8.69v-13.21c0-4.79,4.63-8.69,10.33-8.69h5.62
					c5.68,0,10.31,3.89,10.33,8.67l0.04,12.79c0,5.64-5.36,9.13-10.33,9.13H405.96z M405.92,228.51c-3.51,0.06-5.36,1.38-5.5,3.93
					l0,13.32c0.13,4.03,3.91,4.04,5.53,4.04c0,0,5.72,0.01,5.96,0.01c4.31,0,5.23-2.19,5.24-4.04l-0.04-13.23
					c-0.22-3.92-4.05-4-5.49-4.03l-5.69,0H405.92z"/>
			</g>
		</g>
		<g>
			<g>
				<path class="st2" d="M124.74,272.32v-6.09l-4.54-8.26h2.11l2.02,3.96c0.55,1.09,0.98,1.96,1.43,2.96h0.04
					c0.4-0.94,0.89-1.87,1.45-2.96l2.07-3.96h2.11l-4.81,8.24v6.11H124.74z"/>
				<path class="st2" d="M143.78,267.08c0,3.81-2.64,5.47-5.13,5.47c-2.79,0-4.94-2.05-4.94-5.3c0-3.45,2.26-5.47,5.11-5.47
					C141.77,261.77,143.78,263.93,143.78,267.08z M135.6,267.18c0,2.26,1.3,3.96,3.13,3.96c1.79,0,3.13-1.68,3.13-4
					c0-1.75-0.87-3.96-3.09-3.96C136.56,263.18,135.6,265.22,135.6,267.18z"/>
				<path class="st2" d="M157.83,269.51c0,1.06,0.02,2,0.08,2.81h-1.66l-0.11-1.68h-0.04c-0.49,0.83-1.58,1.92-3.41,1.92
					c-1.62,0-3.56-0.9-3.56-4.52v-6.03h1.87v5.71c0,1.96,0.6,3.28,2.3,3.28c1.26,0,2.13-0.87,2.47-1.7
					c0.11-0.28,0.17-0.62,0.17-0.96v-6.32h1.87V269.51z"/>
				<path class="st2" d="M164.01,265.22c0-1.21-0.02-2.26-0.09-3.21h1.64l0.06,2.02h0.09c0.47-1.38,1.6-2.26,2.85-2.26
					c0.21,0,0.36,0.02,0.53,0.06v1.77c-0.19-0.04-0.38-0.06-0.64-0.06c-1.32,0-2.26,1-2.51,2.41c-0.04,0.25-0.08,0.55-0.08,0.87
					v5.49h-1.85V265.22z"/>
				<path class="st2" d="M191.71,271.85c-0.68,0.34-2.04,0.68-3.79,0.68c-4.05,0-7.09-2.56-7.09-7.26c0-4.49,3.05-7.54,7.5-7.54
					c1.79,0,2.92,0.38,3.41,0.64l-0.45,1.51c-0.7-0.34-1.7-0.6-2.9-0.6c-3.37,0-5.6,2.15-5.6,5.92c0,3.51,2.02,5.77,5.52,5.77
					c1.13,0,2.28-0.23,3.02-0.6L191.71,271.85z"/>
				<path class="st2" d="M206.13,267.08c0,3.81-2.64,5.47-5.13,5.47c-2.79,0-4.94-2.05-4.94-5.3c0-3.45,2.26-5.47,5.11-5.47
					C204.13,261.77,206.13,263.93,206.13,267.08z M197.95,267.18c0,2.26,1.3,3.96,3.13,3.96c1.79,0,3.13-1.68,3.13-4
					c0-1.75-0.87-3.96-3.09-3.96C198.91,263.18,197.95,265.22,197.95,267.18z"/>
				<path class="st2" d="M211.56,264.8c0-1.07-0.02-1.94-0.09-2.79h1.64l0.09,1.66h0.06c0.57-0.98,1.53-1.89,3.24-1.89
					c1.41,0,2.47,0.85,2.92,2.07h0.04c0.32-0.57,0.72-1.02,1.15-1.34c0.62-0.47,1.3-0.72,2.28-0.72c1.36,0,3.39,0.89,3.39,4.47v6.07
					h-1.83v-5.84c0-1.98-0.72-3.17-2.24-3.17c-1.06,0-1.9,0.79-2.21,1.7c-0.09,0.26-0.15,0.6-0.15,0.94v6.37h-1.83v-6.18
					c0-1.64-0.72-2.83-2.15-2.83c-1.17,0-2.02,0.94-2.32,1.87c-0.11,0.28-0.15,0.6-0.15,0.92v6.22h-1.83V264.8z"/>
				<path class="st2" d="M232.39,264.8c0-1.07-0.02-1.94-0.09-2.79h1.64l0.09,1.66h0.06c0.57-0.98,1.53-1.89,3.24-1.89
					c1.41,0,2.47,0.85,2.92,2.07h0.04c0.32-0.57,0.72-1.02,1.15-1.34c0.62-0.47,1.3-0.72,2.28-0.72c1.36,0,3.39,0.89,3.39,4.47v6.07
					h-1.83v-5.84c0-1.98-0.72-3.17-2.24-3.17c-1.06,0-1.9,0.79-2.21,1.7c-0.09,0.26-0.15,0.6-0.15,0.94v6.37h-1.83v-6.18
					c0-1.64-0.72-2.83-2.15-2.83c-1.17,0-2.02,0.94-2.32,1.87c-0.11,0.28-0.15,0.6-0.15,0.92v6.22h-1.83V264.8z"/>
				<path class="st2" d="M261.84,269.51c0,1.06,0.02,2,0.08,2.81h-1.66l-0.11-1.68h-0.04c-0.49,0.83-1.58,1.92-3.41,1.92
					c-1.62,0-3.56-0.9-3.56-4.52v-6.03h1.87v5.71c0,1.96,0.6,3.28,2.3,3.28c1.26,0,2.13-0.87,2.47-1.7
					c0.11-0.28,0.17-0.62,0.17-0.96v-6.32h1.87V269.51z"/>
				<path class="st2" d="M268.02,264.8c0-1.07-0.02-1.94-0.09-2.79h1.66l0.11,1.7h0.04c0.51-0.98,1.7-1.94,3.41-1.94
					c1.43,0,3.64,0.85,3.64,4.39v6.15h-1.87v-5.94c0-1.66-0.62-3.04-2.38-3.04c-1.24,0-2.19,0.87-2.51,1.92
					c-0.09,0.23-0.13,0.55-0.13,0.87v6.2h-1.87V264.8z"/>
				<path class="st2" d="M284.99,259.11c0.02,0.64-0.45,1.15-1.19,1.15c-0.66,0-1.13-0.51-1.13-1.15c0-0.66,0.49-1.17,1.17-1.17
					C284.55,257.94,284.99,258.45,284.99,259.11z M282.9,272.32v-10.31h1.87v10.31H282.9z"/>
				<path class="st2" d="M293.21,259.05v2.96h2.68v1.43h-2.68v5.56c0,1.28,0.36,2,1.41,2c0.49,0,0.85-0.06,1.09-0.13l0.09,1.41
					c-0.36,0.15-0.94,0.26-1.66,0.26c-0.87,0-1.58-0.28-2.02-0.79c-0.53-0.55-0.72-1.47-0.72-2.68v-5.62h-1.6v-1.43h1.6v-2.47
					L293.21,259.05z"/>
				<path class="st2" d="M301.94,262.01l2.26,6.09c0.23,0.68,0.49,1.49,0.66,2.11h0.04c0.19-0.62,0.41-1.41,0.66-2.15l2.04-6.05
					h1.98l-2.81,7.35c-1.34,3.54-2.26,5.35-3.54,6.45c-0.92,0.81-1.83,1.13-2.3,1.22l-0.47-1.58c0.47-0.15,1.09-0.45,1.64-0.92
					c0.51-0.4,1.15-1.13,1.58-2.09c0.09-0.19,0.15-0.34,0.15-0.45c0-0.11-0.04-0.26-0.13-0.49l-3.81-9.5H301.94z"/>
				<path class="st2" d="M332.03,271.85c-0.68,0.34-2.04,0.68-3.79,0.68c-4.05,0-7.09-2.56-7.09-7.26c0-4.49,3.05-7.54,7.5-7.54
					c1.79,0,2.92,0.38,3.41,0.64l-0.45,1.51c-0.7-0.34-1.7-0.6-2.9-0.6c-3.37,0-5.6,2.15-5.6,5.92c0,3.51,2.02,5.77,5.52,5.77
					c1.13,0,2.28-0.23,3.02-0.6L332.03,271.85z"/>
				<path class="st2" d="M346.45,267.08c0,3.81-2.64,5.47-5.13,5.47c-2.79,0-4.94-2.05-4.94-5.3c0-3.45,2.26-5.47,5.11-5.47
					C344.45,261.77,346.45,263.93,346.45,267.08z M338.27,267.18c0,2.26,1.3,3.96,3.13,3.96c1.79,0,3.13-1.68,3.13-4
					c0-1.75-0.87-3.96-3.09-3.96C339.23,263.18,338.27,265.22,338.27,267.18z"/>
				<path class="st2" d="M351.88,264.8c0-1.07-0.02-1.94-0.09-2.79h1.64l0.09,1.66h0.06c0.57-0.98,1.53-1.89,3.24-1.89
					c1.41,0,2.47,0.85,2.92,2.07h0.04c0.32-0.57,0.72-1.02,1.15-1.34c0.62-0.47,1.3-0.72,2.28-0.72c1.36,0,3.39,0.89,3.39,4.47v6.07
					h-1.83v-5.84c0-1.98-0.72-3.17-2.24-3.17c-1.06,0-1.9,0.79-2.21,1.7c-0.09,0.26-0.15,0.6-0.15,0.94v6.37h-1.83v-6.18
					c0-1.64-0.72-2.83-2.15-2.83c-1.17,0-2.02,0.94-2.32,1.87c-0.11,0.28-0.15,0.6-0.15,0.92v6.22h-1.83V264.8z"/>
				<path class="st2" d="M372.71,265.37c0-1.32-0.04-2.38-0.09-3.36h1.68l0.09,1.77h0.04c0.77-1.26,1.98-2,3.66-2
					c2.49,0,4.37,2.11,4.37,5.24c0,3.71-2.26,5.54-4.69,5.54c-1.36,0-2.56-0.6-3.17-1.62h-0.04v5.6h-1.85V265.37z M374.56,268.12
					c0,0.28,0.04,0.53,0.08,0.77c0.34,1.3,1.47,2.19,2.81,2.19c1.98,0,3.13-1.62,3.13-3.98c0-2.07-1.09-3.83-3.07-3.83
					c-1.28,0-2.47,0.92-2.83,2.32c-0.06,0.23-0.13,0.51-0.13,0.77V268.12z"/>
				<path class="st2" d="M393.6,272.32l-0.15-1.3h-0.06c-0.58,0.81-1.68,1.53-3.15,1.53c-2.09,0-3.15-1.47-3.15-2.96
					c0-2.49,2.22-3.85,6.2-3.83v-0.21c0-0.85-0.23-2.38-2.34-2.38c-0.96,0-1.96,0.3-2.68,0.77l-0.43-1.24
					c0.85-0.55,2.09-0.92,3.39-0.92c3.15,0,3.92,2.15,3.92,4.22v3.85c0,0.89,0.04,1.77,0.17,2.47H393.6z M393.32,267.06
					c-2.05-0.04-4.37,0.32-4.37,2.32c0,1.21,0.81,1.79,1.77,1.79c1.34,0,2.19-0.85,2.49-1.73c0.06-0.19,0.11-0.41,0.11-0.6V267.06z"
					/>
				<path class="st2" d="M400.97,270.4c0.55,0.36,1.53,0.75,2.47,0.75c1.36,0,2-0.68,2-1.53c0-0.89-0.53-1.38-1.92-1.9
					c-1.85-0.66-2.73-1.68-2.73-2.92c0-1.66,1.34-3.02,3.56-3.02c1.04,0,1.96,0.3,2.53,0.64l-0.47,1.36
					c-0.41-0.26-1.15-0.6-2.11-0.6c-1.11,0-1.73,0.64-1.73,1.41c0,0.85,0.62,1.24,1.96,1.75c1.79,0.68,2.7,1.58,2.7,3.11
					c0,1.81-1.41,3.09-3.85,3.09c-1.13,0-2.17-0.28-2.9-0.7L400.97,270.4z"/>
				<path class="st2" d="M412.47,270.4c0.55,0.36,1.53,0.75,2.47,0.75c1.36,0,2-0.68,2-1.53c0-0.89-0.53-1.38-1.92-1.9
					c-1.85-0.66-2.73-1.68-2.73-2.92c0-1.66,1.34-3.02,3.56-3.02c1.04,0,1.96,0.3,2.53,0.64l-0.47,1.36
					c-0.41-0.26-1.15-0.6-2.11-0.6c-1.11,0-1.73,0.64-1.73,1.41c0,0.85,0.62,1.24,1.96,1.75c1.79,0.68,2.7,1.58,2.7,3.11
					c0,1.81-1.41,3.09-3.85,3.09c-1.13,0-2.17-0.28-2.9-0.7L412.47,270.4z"/>
			</g>
		</g>
		<g>
			<path class="st3" d="M282.74,97.51"/>
		</g>
	</g>
</g>
</svg>
